<?xml version="1.0" encoding="utf-8"?>
<!-- Generator: Adobe Illustrator 23.0.1, SVG Export Plug-In . SVG Version: 6.00 Build 0)  -->
<svg version="1.1" id="_x31__1_" xmlns="http://www.w3.org/2000/svg" xmlns:xlink="http://www.w3.org/1999/xlink" x="0px" y="0px"
	 viewBox="0 0 300 300" style="enable-background:new 0 0 300 300;" xml:space="preserve">
<style type="text/css">
	.st0{fill:#81B29A;}
	.st1{fill:#8CBFA4;}
	.st2{fill:#679B80;}
	.st3{fill:#FFFFFF;}
	.st4{fill:#D9D9D9;}
	.st5{fill:#C6C7C7;}
	.st6{fill:#F4F2E9;}
	.st7{fill:#3D405B;}
	.st8{fill:#E8BB79;}
	.st9{fill:#F2CC8F;}
	.st10{fill:#E0A558;}
	.st11{fill:#EAB568;}
	.st12{fill:#1F2442;}
	.st13{fill:#E07A5F;}
	.st14{fill:#CC5A44;}
	.st15{fill:#F4F9FB;}
	.st16{fill:#EBEDF2;}
	.st17{fill:#515254;}
	.st18{fill:#F4F1DE;}
</style>
<g id="_x31_0">
	<g>
		<polygon class="st0" points="182.69,263.07 149.52,263.07 149.52,117.63 182.69,150.8 		"/>
		<polygon class="st1" points="149.52,117.63 149.52,21.69 149.52,18.11 182.69,18.11 182.69,59.76 182.69,150.8 		"/>
		<polygon class="st0" points="182.69,150.8 182.69,59.76 182.69,18.11 215.01,18.11 215.01,96.85 215.01,183.12 		"/>
		<polygon class="st2" points="215.01,263.07 182.69,263.07 182.69,150.8 215.01,183.12 		"/>
		<polygon class="st3" points="156.33,124.43 156.33,29.5 156.33,28.84 182.69,28.84 182.69,59.76 182.69,150.8 		"/>
		<polygon class="st4" points="182.69,197.68 156.33,197.68 156.33,124.43 182.69,150.8 		"/>
		<polygon class="st5" points="208.21,197.68 182.69,197.68 182.69,150.8 208.21,176.31 		"/>
		<polygon class="st6" points="182.69,150.8 182.69,59.76 182.69,28.84 208.21,28.84 208.21,89.04 208.21,176.31 		"/>
		<path class="st7" d="M182.76,213.99c7.54,0.3,13.44,7.32,13.44,15.96c0,8.64-5.9,15.66-13.44,15.97l-0.1,0.01
			c-0.13,0.01-0.26,0.02-0.39,0.02c-7.68,0-13.93-7.18-13.93-15.99c0-8.82,6.25-15.99,13.93-15.99c0.14,0,0.26,0.01,0.39,0.02
			L182.76,213.99z"/>
		<path class="st4" d="M182.69,243.53c-0.14,0.01-0.28,0.03-0.42,0.03c-6.55,0-11.86-6.09-11.86-13.61c0-7.51,5.31-13.6,11.86-13.6
			c0.15,0,0.28,0.02,0.42,0.02V243.53z"/>
		<path class="st5" d="M194.12,229.95c0,7.35-5.08,13.32-11.43,13.58v-27.16C189.04,216.63,194.12,222.6,194.12,229.95z"/>
		<rect x="166.11" y="42.74" class="st7" width="32.74" height="13.01"/>
	</g>
	<g>
		<polygon class="st8" points="249.35,255.7 216.17,255.7 216.17,184.28 249.35,217.45 		"/>
		<polygon class="st9" points="216.17,184.28 216.17,89.47 216.17,10.73 249.35,10.73 249.35,127.54 249.35,217.45 		"/>
		<polygon class="st10" points="281.67,255.7 249.35,255.7 249.35,217.45 281.67,249.77 		"/>
		<polygon class="st11" points="249.35,217.45 249.35,127.54 249.35,10.73 281.67,10.73 281.67,164.62 281.67,249.77 		"/>
		<polygon class="st3" points="222.98,21.47 249.35,21.47 249.35,127.54 249.35,190.31 222.98,190.31 222.98,97.28 		"/>
		<polygon class="st6" points="249.35,21.47 274.86,21.47 274.86,156.81 274.86,190.31 249.35,190.31 249.35,127.54 		"/>
		<path class="st12" d="M249.41,238.54l-0.1,0.01c-0.13,0.01-0.26,0.02-0.4,0.02c-7.68,0-13.93-7.17-13.93-15.99
			c0-5.53,2.46-10.41,6.2-13.29l20.27,20.27C259.28,234.72,254.77,238.32,249.41,238.54z"/>
		<path class="st7" d="M241.19,209.29c2.21-1.7,4.87-2.7,7.73-2.7c0.14,0,0.27,0.01,0.4,0.02l0.1,0.01
			c7.53,0.31,13.43,7.32,13.43,15.96c0,2.51-0.51,4.87-1.4,6.98L241.19,209.29z"/>
		<path class="st4" d="M249.35,236.16c-0.15,0-0.28,0.02-0.43,0.02c-6.55,0-11.85-6.09-11.85-13.6c0-4.95,2.31-9.27,5.75-11.65
			l6.53,6.52V236.16z"/>
		<path class="st3" d="M242.82,210.93c1.78-1.23,3.86-1.96,6.1-1.96c0.15,0,0.28,0.02,0.43,0.03v8.45L242.82,210.93z"/>
		<path class="st5" d="M249.35,236.16v-18.71l10.47,10.47C258.06,232.63,254.05,235.96,249.35,236.16z"/>
		<path class="st6" d="M249.35,217.45V209c6.35,0.26,11.43,6.23,11.43,13.58c0,1.9-0.34,3.7-0.96,5.34L249.35,217.45z"/>
		<rect x="232.97" y="35.37" class="st7" width="32.74" height="13.02"/>
	</g>
	<g>
		<polygon class="st13" points="18.33,21.69 18.33,18.11 51.5,18.11 51.5,59.76 51.5,263.07 18.33,263.07 		"/>
		<polygon class="st14" points="51.5,59.76 51.5,18.11 83.82,18.11 83.82,96.85 83.82,263.07 51.5,263.07 		"/>
		<polygon class="st3" points="25.14,29.5 25.14,28.84 51.5,28.84 51.5,59.76 51.5,197.68 25.14,197.68 		"/>
		<polygon class="st6" points="51.5,59.76 51.5,28.84 77.02,28.84 77.02,89.04 77.02,197.68 51.5,197.68 		"/>
		<path class="st7" d="M51.08,245.94c-7.68,0-13.93-7.18-13.93-15.99c0-8.82,6.25-15.99,13.93-15.99c0.13,0,0.26,0.01,0.39,0.02
			l0.1,0.01c7.54,0.3,13.43,7.32,13.43,15.96c0,8.64-5.9,15.66-13.43,15.97l-0.1,0.01C51.34,245.93,51.21,245.94,51.08,245.94z"/>
		<path class="st15" d="M39.22,229.95c0,7.68,5.54,13.87,12.28,13.6v-27.19C44.76,216.08,39.22,222.27,39.22,229.95z"/>
		<path class="st16" d="M51.5,216.37v27.16c6.35-0.26,11.43-6.23,11.43-13.58C62.93,222.6,57.85,216.63,51.5,216.37z"/>
		<rect x="34.92" y="42.74" class="st7" width="32.74" height="13.01"/>
	</g>
	<g>
		<polygon class="st7" points="116.56,116.8 116.56,244.96 83.4,244.96 83.4,78.74 83.4,51.5 116.56,84.67 		"/>
		<polygon class="st7" points="83.4,51.5 83.4,0 116.56,0 116.56,84.67 		"/>
		<polygon class="st12" points="148.88,153.88 148.88,244.96 116.56,244.96 116.56,116.8 116.56,84.67 148.88,116.99 		"/>
		<polygon class="st12" points="116.56,84.67 116.56,0 148.88,0 148.88,116.99 		"/>
		<polygon class="st4" points="116.56,116.8 116.56,179.58 90.2,179.58 90.2,86.55 90.2,58.31 116.56,84.67 		"/>
		<polygon class="st3" points="90.2,58.31 90.2,10.73 116.56,10.73 116.56,84.67 		"/>
		<polygon class="st5" points="142.08,146.08 142.08,179.58 116.56,179.58 116.56,116.8 116.56,84.67 142.08,110.19 		"/>
		<polygon class="st6" points="116.56,84.67 116.56,10.73 142.08,10.73 142.08,110.19 		"/>
		<path class="st17" d="M116.64,195.88c7.54,0.3,13.44,7.32,13.44,15.96c0,8.65-5.9,15.66-13.44,15.97l-0.1,0.01
			c-0.13,0.01-0.26,0.02-0.39,0.02c-7.68,0-13.93-7.18-13.93-15.99c0-8.82,6.25-15.99,13.93-15.99c0.14,0,0.26,0.01,0.39,0.02
			L116.64,195.88z"/>
		<path class="st4" d="M116.56,225.42c-0.14,0.01-0.28,0.03-0.42,0.03c-6.55,0-11.86-6.09-11.86-13.61c0-7.51,5.31-13.6,11.86-13.6
			c0.15,0,0.28,0.02,0.42,0.03V225.42z"/>
		<path class="st5" d="M128,211.84c0,7.35-5.08,13.32-11.43,13.58v-27.16C122.92,198.52,128,204.49,128,211.84z"/>
		<rect x="100.2" y="24.63" class="st7" width="32.74" height="13.01"/>
	</g>
	<g>
		<path class="st9" d="M75.87,249.48c0.57,0.14,2.1-0.7,2.63-0.88l5.08-1.72c5.15-1.73,5.1,0.46,10.23-1.27
			c12.53-4.21,24.39-10.38,36.9-14.59l13.84-4.67c0.81-0.27,4.68-1,5.01-1.8c0.2-0.44-0.5-2.07-0.59-2.53
			c-0.13-0.56-0.48-2.37-0.86-4.58c-0.6-3.66-1.3-8.47-1.23-10.72c0.06-1.63,6.45-31.3,5.6-34.88c-1.05-4.32-2.92-8.63-4.34-12.88
			l-5.98-17.75c-0.45-1.32-0.81-2.77-1.37-4.05c-1.74-3.86-4.89-7.35-8.98-7.95c-2.55-0.38-6.21,0.46-7.74,2.92
			c-1.2,1.97-0.68,4.7-0.38,6.87c0.44,3.11,1.49,6.11,2.58,9.07c1.43,3.78,0.88,5.65-0.2,5.28c-1.5-0.47-2.04-4.14-2.46-5.35
			L96.09,66.26c-0.79-2.32-1.39-4.85-2.4-7.09c-0.38-0.84-1.11-1.47-1.95-1.93c-0.23-0.12-0.45-0.25-0.69-0.35
			c-0.03-0.02-0.07-0.03-0.1-0.04c-0.53-0.21-1.1-0.42-1.61-0.57c-4.81-1.49-10.01,0.24-13.05,4.27c-0.35,0.43-0.66,0.89-0.94,1.35
			c-0.02,0.03-0.03,0.05-0.05,0.08c-0.35,0.6-0.62,1.2-0.77,1.83c-0.17,0.73-0.18,1.5,0.06,2.3c0.4,1.33,0.88,2.6,1.32,3.93
			c1.68,4.96,19.62,57.06,20.24,60.06c0.49,2.35-2,3.01-2.96,0.9c-0.97-2.11-1.54-4.51-2.26-6.7c-1.03-3.06-4.2-13.35-5.51-14.92
			c-3.61-4.24-12.03-2.48-15.12,1.55c-2.02,2.62-2.18,6-1.13,9.05l2.9,8.62c0.72,2.12,1.79,4.37,2.22,6.57
			c0.39,2.09-0.87,2.56-2.63,2.17c-1.62-0.36-4.92-8.4-5.83-11.1c-1.09-3.27-2.79-6.12-6.14-7.53c-4.58-1.92-9.64,0.09-12.43,4.04
			c-2.04,2.86-1.41,5.55-0.39,8.55c1.01,2.99,5.58,14.12,3.13,15.09c-1.07,0.45-2.7-3.18-3.14-4.2c-1.79-4.3-6.71-6.58-11.13-5.08
			c-3.54,1.22-5.93,4.53-6.6,8.14c0.01-0.02,0-0.03,0-0.03c-0.03,0.06-0.05,0.12-0.05,0.26c-0.02,0.05-0.04,0.11-0.03,0.18
			c-0.02,0.03-0.01,0.04-0.03,0.07l0.02,0.03c0.26,2.58,10.35,31.25,14.37,43.15l4.47,13.29c1.96,5.75,6.77,10.51,11.42,14.23
			c1.19,0.93,8.3,10.87,9.07,12.11c0.27,0.45,3,8.47,4.91,14.1c0.79,2.35,1.46,4.28,1.73,5.09
			C75.24,248.44,75.3,249.35,75.87,249.48z"/>
		
			<rect x="67.89" y="229.63" transform="matrix(0.9477 -0.3193 0.3193 0.9477 -70.2152 48.6855)" class="st18" width="91.02" height="17.79"/>
		<polygon class="st7" points="74.42,300 60.12,262.6 168.19,226.19 191.82,300 		"/>
		<path class="st18" d="M87.51,75.1c4.49-0.82,6.82-6.28,5.22-12.14l-1.37-4.9c-0.11-0.39-0.24-0.82-0.4-1.21
			c-0.53-0.21-1.1-0.42-1.61-0.57c-4.81-1.49-10.01,0.24-13.05,4.27c-0.35,0.43-0.66,0.89-0.94,1.35c-0.02,0.03-0.03,0.05-0.05,0.08
			l1.1,3.91C78.03,71.77,83.03,75.9,87.51,75.1z"/>
	</g>
</g>
</svg>
