<?xml version="1.0" encoding="utf-8"?>
<!-- Generator: Adobe Illustrator 23.0.1, SVG Export Plug-In . SVG Version: 6.00 Build 0)  -->
<svg version="1.1" id="_x31__1_" xmlns="http://www.w3.org/2000/svg" xmlns:xlink="http://www.w3.org/1999/xlink" x="0px" y="0px"
	 viewBox="0 0 300 300" style="enable-background:new 0 0 300 300;" xml:space="preserve">
<style type="text/css">
	.st0{fill:#3D405B;}
	.st1{fill:#EAE0AC;}
	.st2{fill:#F4F1DE;}
	.st3{fill:#1F2442;}
	.st4{fill:#BCBEC0;}
	.st5{fill:#E07A5F;}
	.st6{fill:#FFFFFF;}
</style>
<g>
	<rect x="24.38" y="35.55" class="st0" width="251.25" height="5.39"/>
	<polygon class="st1" points="275.62,40.94 24.38,40.94 24.38,46.4 275.62,266.33 	"/>
	<polygon class="st2" points="24.38,46.4 24.38,268.94 275.62,268.94 275.62,266.33 	"/>
	<rect x="24.38" y="268.94" class="st0" width="251.25" height="7.19"/>
	<rect x="11.04" y="13.11" class="st1" width="277.91" height="22.44"/>
	<rect x="11.04" y="276.12" class="st1" width="277.91" height="22.44"/>
	<polygon class="st0" points="200.67,200.72 31.04,200.72 31.04,264.45 268.96,264.45 268.96,260.5 	"/>
	<polygon class="st3" points="268.96,200.72 200.67,200.72 268.96,260.5 	"/>
	<polygon class="st4" points="263.32,205.21 205.79,205.21 263.32,255.56 	"/>
	<polygon class="st4" points="205.79,205.21 36.69,205.21 36.69,259.96 263.32,259.96 263.32,255.56 	"/>
	<polygon class="st1" points="263.32,205.21 205.79,205.21 263.32,255.56 	"/>
	<polygon class="st2" points="205.79,205.21 36.69,205.21 36.69,259.96 263.32,259.96 263.32,255.56 	"/>
	<rect x="122.82" y="228.55" class="st0" width="54.37" height="8.98"/>
	<polygon class="st3" points="268.96,187.92 268.96,124.19 113.24,124.19 186.05,187.92 	"/>
	<polygon class="st0" points="31.04,187.92 186.05,187.92 113.24,124.19 31.04,124.19 	"/>
	<g>
		<polygon class="st4" points="263.32,183.44 263.32,128.68 118.37,128.68 180.92,183.44 		"/>
		<polygon class="st4" points="36.69,183.44 180.92,183.44 118.37,128.68 36.69,128.68 		"/>
		<polygon class="st1" points="263.32,183.44 263.32,128.68 118.37,128.68 180.92,183.44 		"/>
		<polygon class="st2" points="36.69,183.44 180.92,183.44 118.37,128.68 36.69,128.68 		"/>
		<polygon class="st3" points="177.19,160.99 177.19,152.02 145.03,152.02 155.29,160.99 		"/>
		<polygon class="st0" points="122.82,160.99 155.29,160.99 145.03,152.02 122.82,152.02 		"/>
	</g>
	<rect x="36.69" y="40.94" class="st1" width="232.27" height="24.23"/>
	<g>
		<path class="st5" d="M218.07,10.47H108.06V2.32c0-0.49-0.4-0.88-0.88-0.88H54.76c-0.49,0-0.88,0.4-0.88,0.88v9.03v21.58v60.98
			c0,0.48,0.4,0.88,0.88,0.88h163.31c0.49,0,0.88-0.4,0.88-0.88V11.35C218.95,10.87,218.56,10.47,218.07,10.47z"/>
		<rect x="60.75" y="7.46" class="st6" width="35.63" height="13.55"/>
	</g>
	<g>
		<path class="st3" d="M244.74,15.41H134.72V7.26c0-0.48-0.4-0.88-0.88-0.88H81.42c-0.48,0-0.88,0.4-0.88,0.88v9.04v21.58v60.98
			c0,0.49,0.4,0.88,0.88,0.88h163.32c0.48,0,0.88-0.4,0.88-0.88V16.29C245.62,15.8,245.22,15.41,244.74,15.41z"/>
		<rect x="87.42" y="12.4" class="st6" width="35.63" height="13.55"/>
	</g>
	<g>
		<polygon class="st3" points="268.96,118.58 268.96,54.85 34.02,54.85 106.83,118.58 		"/>
		<polygon class="st0" points="31.04,118.58 106.83,118.58 34.02,54.85 31.04,54.85 		"/>
		<polygon class="st4" points="263.32,114.09 263.32,59.33 39.15,59.33 101.7,114.09 		"/>
		<polygon class="st4" points="36.69,114.09 101.7,114.09 39.15,59.33 36.69,59.33 		"/>
		<polygon class="st2" points="36.69,114.09 101.7,114.09 39.15,59.33 36.69,59.33 		"/>
		<polygon class="st1" points="263.32,114.09 263.32,59.33 39.15,59.33 101.7,114.09 		"/>
		<rect x="122.82" y="82.68" class="st3" width="54.37" height="8.98"/>
	</g>
</g>
</svg>
