<?xml version="1.0" encoding="utf-8"?>
<!-- Generator: Adobe Illustrator 23.0.1, SVG Export Plug-In . SVG Version: 6.00 Build 0)  -->
<svg version="1.1" id="_x31__1_" xmlns="http://www.w3.org/2000/svg" xmlns:xlink="http://www.w3.org/1999/xlink" x="0px" y="0px"
	 viewBox="0 0 300 300" style="enable-background:new 0 0 300 300;" xml:space="preserve">
<style type="text/css">
	.st0{fill:#1F2442;}
	.st1{fill:#EAB568;}
	.st2{fill:#F2CC8F;}
	.st3{fill:#E8EFEB;}
	.st4{fill:#7B7D8E;}
	.st5{fill:#3D405B;}
	.st6{fill:#F4F1DE;}
</style>
<g id="_x32_">
	<path class="st0" d="M204.8,299.53H20.1c-9.19,0-14.18-7.25-11.09-16.05L60.9,135.41c2.74-7.83,12.01-14.2,20.61-14.2h174.92
		c8.6,0,13.91,6.37,11.8,14.2l-42.97,148.07C222.88,292.28,213.99,299.53,204.8,299.53z"/>
	
		<rect x="35.86" y="51.74" transform="matrix(0.2516 -0.9678 0.9678 0.2516 -16.1954 250.1176)" class="st1" width="235.53" height="167.59"/>
	
		<rect x="41.15" y="68.85" transform="matrix(0.3662 -0.9305 0.9305 0.3662 -41.3216 244.6259)" class="st2" width="235.53" height="167.59"/>
	<polygon class="st3" points="185.09,296.28 33.94,216.57 151.33,12.38 296.62,95.9 	"/>
	<g>
		
			<rect x="213.24" y="-0.14" transform="matrix(0.4978 -0.8673 0.8673 0.4978 47.6155 223.5237)" class="st4" width="7.17" height="141.58"/>
		
			<rect x="204.51" y="20.5" transform="matrix(0.4974 -0.8675 0.8675 0.4974 25.3909 226.4015)" class="st4" width="7.16" height="141.58"/>
		
			<rect x="188.56" y="41.14" transform="matrix(0.4974 -0.8675 0.8675 0.4974 -0.5323 222.9375)" class="st4" width="7.16" height="141.58"/>
		
			<rect x="177.79" y="61.78" transform="matrix(0.4974 -0.8675 0.8675 0.4974 -23.8494 223.971)" class="st4" width="7.17" height="141.58"/>
		
			<rect x="165.84" y="82.42" transform="matrix(0.4974 -0.8675 0.8675 0.4974 -47.7579 223.9851)" class="st4" width="7.17" height="141.58"/>
		
			<rect x="151.46" y="103.06" transform="matrix(0.4974 -0.8675 0.8675 0.4974 -72.8944 221.8788)" class="st4" width="7.16" height="141.58"/>
	</g>
	<g>
		<path class="st5" d="M73.44,147.47v-4.78c0-7.01-5.73-12.74-12.74-12.74H16.11c-7,0-12.74,5.73-12.74,12.74v21.5v9.55v109.07
			c0,9.19,7.53,16.72,16.72,16.72h97.12V147.47H73.44z"/>
		<path class="st0" d="M207.18,147.47h-89.96v152.06h89.96c9.19,0,16.72-7.52,16.72-16.72V164.19
			C223.9,155,216.38,147.47,207.18,147.47z"/>
		<rect x="11.34" y="141.9" class="st6" width="51.75" height="21.5"/>
	</g>
</g>
</svg>
