<?xml version="1.0" encoding="utf-8"?>
<!-- Generator: Adobe Illustrator 23.0.1, SVG Export Plug-In . SVG Version: 6.00 Build 0)  -->
<svg version="1.1" id="_x31__1_" xmlns="http://www.w3.org/2000/svg" xmlns:xlink="http://www.w3.org/1999/xlink" x="0px" y="0px"
	 viewBox="0 0 300 300" style="enable-background:new 0 0 300 300;" xml:space="preserve">
<style type="text/css">
	.st0{fill:#BFD8CA;}
	.st1{fill:#81B29A;}
	.st2{fill:#7B7D8E;}
	.st3{fill:#F4F1DE;}
	.st4{fill:#F2CC8F;}
	.st5{fill:#A7A9AC;}
	.st6{fill:#1F2442;}
	.st7{fill:#E07A5F;}
	.st8{fill:#FFFFFF;}
	.st9{fill:#3D405B;}
	.st10{fill:#F9DDC7;}
</style>
<g id="_x36_">
	<g>
		<polygon class="st0" points="152.07,98.22 48,98.22 48,277.5 193.28,277.5 193.28,139.43 		"/>
		<polygon class="st1" points="152.07,139.43 193.28,139.43 152.07,98.22 		"/>
		<polygon class="st1" points="193.28,139.43 152.07,139.43 193.28,180.64 		"/>
		<g>
			<g>
				<rect x="57.11" y="112.02" class="st2" width="91.27" height="4.93"/>
				<rect x="57.11" y="121.45" class="st2" width="91.27" height="4.93"/>
				<rect x="57.11" y="130.89" class="st2" width="91.27" height="4.93"/>
			</g>
			<rect x="57.11" y="167.28" class="st2" width="123.45" height="6.08"/>
			<rect x="57.11" y="184.82" class="st2" width="123.45" height="6.08"/>
			<rect x="57.11" y="202.36" class="st2" width="123.45" height="6.08"/>
			<rect x="57.11" y="219.89" class="st2" width="123.45" height="6.08"/>
			<rect x="57.11" y="237.43" class="st2" width="123.45" height="6.08"/>
			<rect x="57.11" y="254.97" class="st2" width="123.45" height="6.08"/>
		</g>
	</g>
	<g>
		<polygon class="st3" points="196.39,120.72 92.33,120.72 92.33,300 237.61,300 237.61,161.93 		"/>
		<polygon class="st4" points="196.39,161.93 237.61,161.93 196.39,120.72 		"/>
		<g>
			<g>
				<rect x="101.44" y="134.52" class="st5" width="91.27" height="4.93"/>
				<rect x="101.44" y="143.96" class="st5" width="91.27" height="4.93"/>
				<rect x="101.44" y="153.39" class="st5" width="91.27" height="4.93"/>
			</g>
			<rect x="101.44" y="189.78" class="st5" width="123.45" height="6.08"/>
			<rect x="101.44" y="207.32" class="st5" width="123.45" height="6.08"/>
			<rect x="101.44" y="224.86" class="st5" width="123.45" height="6.08"/>
			<rect x="101.44" y="242.4" class="st5" width="123.45" height="6.08"/>
			<rect x="101.44" y="259.94" class="st5" width="123.45" height="6.08"/>
			<rect x="101.44" y="277.48" class="st5" width="123.45" height="6.08"/>
		</g>
	</g>
	<g>
		<path class="st6" d="M146.18,161.45c2.24-2.39,5.73-6.13,11.92-12.78c-3.26-2.22-6.51-4.44-9.77-6.66
			c-3.92,8.19-6.12,12.81-7.53,15.77L146.18,161.45z"/>
		<polygon class="st6" points="228.93,14.92 239.09,0 252,19.72 244.66,30.49 		"/>
		<path class="st7" d="M215.62,74.05l-18.86-12.85c-1.23,1.91-2.43,3.8-3.61,5.68l18.51,12.61
			C212.97,77.69,214.29,75.89,215.62,74.05z"/>
		<path class="st7" d="M188.77,73.85c-12.36,19.87-23.85,39.67-41.28,68.4c3.57,2.43,7.14,4.87,10.71,7.3
			c20.36-26.73,34.58-44.67,48.56-63.44L188.77,73.85z"/>
		<path class="st7" d="M228.85,18.65c-0.11-0.12-2.76-2.79-7.76-1.16c-5.54,1.81-11.68,8.14-18.23,18.78
			c-13.49,21.11-31.72,46.57-31.9,46.82c0,0,11.2,1.51,14.67-11.7c5-7.3,27.39-37.71,27.61-38.01c0.01-0.02,1.65-2.18,3.56-2.8
			c0.97-0.32,2.43-0.44,3.87,2.13c1.18,2.12,2.39,2.25,3.18,1.99c3.19-1.04,4.81-11.98,5.24-15.31l0.06-0.43L228.85,18.65z"/>
		<path class="st6" d="M211.65,79.49l-18.51-12.61c-1.48,2.33-2.93,4.65-4.37,6.98l17.99,12.26
			C208.39,83.92,210.02,81.72,211.65,79.49z"/>
		<path class="st7" d="M248.23,26.29c-6.32-4.31-12.64-8.61-18.95-12.91c-13.44,18.86-23.53,33.81-32.52,47.82l18.86,12.85
			C225.37,60.55,235.59,45.69,248.23,26.29z"/>
		<path class="st7" d="M140.81,157.79c-0.56,1.03-1.14,2.29-1.61,3.78c-0.73,2.27-0.97,4.31-1.03,5.86
			c1.33-0.66,2.89-1.57,4.52-2.81c1.42-1.09,2.58-2.19,3.49-3.17C144.39,160.23,142.6,159.01,140.81,157.79z"/>
	</g>
	<g>
		<g>
			<path class="st4" d="M190.2,210.54l2.65,6.54c1.14,2.82,0.87,6.23,0.31,9.16c-0.14,0.75,0.4,6.87,0.51,7.59
				c0.06,0.37,3.21,8.13,3.75,9.49c0.14,0.35,0.41,0.72,0.24,0.95c-0.17,0.24-1.03,0.42-1.29,0.52l-2.5,1.01
				c-2.54,1.03-1.79,1.84-4.32,2.87c-6.16,2.49-12.7,4.02-18.85,6.52l-6.8,2.75c-0.41,0.16-2.12,1.15-2.5,0.96
				c-0.22-0.1-0.49-0.96-0.61-1.16c-0.35-0.67-2.99-5.17-4.21-6.51c-0.56-0.6-12.71-9.82-13.56-11.47
				c-1.02-1.99-1.72-4.24-2.56-6.32l-3.53-8.73c-0.26-0.65-0.6-1.32-0.81-2c-0.6-2.04-0.54-4.4,0.83-5.97
				c0.84-0.98,2.51-1.86,3.9-1.42c1.11,0.36,1.8,1.58,2.4,2.5c0.85,1.33,1.43,2.82,1.99,4.31c0.7,1.91,1.52,2.44,1.81,1.95
				c0.41-0.67-0.57-2.25-0.82-2.85l-16.27-40.18c-0.46-1.14-1.06-2.31-1.41-3.49c-0.17-0.57-0.01-1.17,0.26-1.73
				c0.13-0.28,0.29-0.55,0.45-0.8c1.35-2.14,3.9-3.19,6.38-2.65c0.27,0.06,0.55,0.13,0.8,0.21c0.72,0.25,1.35,0.63,1.67,1.36
				c0.28,0.63,0.52,1.28,0.78,1.92c0.99,2.44,11.21,28.19,11.96,29.53c0.58,1.05,1.74,0.49,1.42-0.63c-0.32-1.12-0.9-2.22-1.33-3.29
				c-0.61-1.5-2.78-6.47-2.79-7.49c-0.02-2.8,3.77-4.89,6.28-4.37c1.62,0.34,2.79,1.58,3.39,3.08l1.72,4.24
				c0.42,1.05,0.75,2.25,1.31,3.23c0.53,0.93,1.16,0.69,1.71-0.03c0.5-0.66-0.87-4.81-1.41-6.14c-0.65-1.6-0.93-3.24-0.12-4.88
				c1.11-2.23,3.7-3.12,6.05-2.53c1.72,0.42,2.36,1.65,2.96,3.13c0.6,1.47,2.5,7.21,3.74,6.78c0.55-0.18-0.01-2.1-0.18-2.63
				c-0.72-2.23,0.41-4.71,2.59-5.58c1.75-0.7,3.76-0.21,5.2,0.95c-0.01-0.01-0.02-0.02-0.02-0.02c0.03,0.01,0.06,0.03,0.1,0.08
				c0.03,0.01,0.05,0.04,0.07,0.06c0.01,0.01,0.02,0.01,0.03,0.02l0,0.01C182.29,190.46,187.83,204.69,190.2,210.54z"/>
			
				<rect x="156.89" y="247.91" transform="matrix(0.9269 -0.3754 0.3754 0.9269 -81.5913 85.9321)" class="st8" width="45.75" height="8.94"/>
			<polygon class="st9" points="230.2,299.03 207.97,244.11 154.84,265.63 168.36,299.03 			"/>
		</g>
		<path class="st10" d="M135.95,172.49l1.41,3.07c0.9,1.95,0.03,4.29-1.92,5.18c-1.96,0.9-4.3,0.04-5.19-1.91l-1.36-2.96
			c0.11-0.27,0.25-0.53,0.39-0.77c1.18-2.08,3.54-3.18,5.9-2.78C135.44,172.37,135.71,172.42,135.95,172.49z"/>
	</g>
</g>
</svg>
