<?xml version="1.0" encoding="utf-8"?>
<!-- Generator: Adobe Illustrator 23.0.1, SVG Export Plug-In . SVG Version: 6.00 Build 0)  -->
<svg version="1.1" id="_x31__1_" xmlns="http://www.w3.org/2000/svg" xmlns:xlink="http://www.w3.org/1999/xlink" x="0px" y="0px"
	 viewBox="0 0 300 300" style="enable-background:new 0 0 300 300;" xml:space="preserve">
<style type="text/css">
	.st0{fill:#F2CC8F;}
	.st1{fill:#81B29A;}
	.st2{fill:#E8EFEB;}
	.st3{fill:#5F8470;}
	.st4{fill:#BFD8CA;}
	.st5{fill:#E07A5F;}
	.st6{fill:#F4F1DE;}
	.st7{fill:#3D405B;}
</style>
<g id="_x31_6">
	<path class="st0" d="M28.55,193.22l4.32-9.64v-26.19c0-8.78,2.8-17.33,8.01-24.4l28.29-38.46l32.33-21.55l8.24,73.17l-5.4,40.79
		l-15.65,33.51L28.55,193.22z"/>
	<g>
		<path class="st1" d="M274.5,12.04H85.86c-12.17,0-22.12,9.96-22.12,22.12v129.12c0,12.17,9.95,22.12,22.12,22.12H274.5
			c12.17,0,22.12-9.96,22.12-22.12V34.16C296.62,21.99,286.67,12.04,274.5,12.04z"/>
		<rect x="80.92" y="28.26" class="st2" width="191.32" height="140.92"/>
		<path class="st2" d="M292.47,98.72c0,4.54-3.68,8.22-8.22,8.22c-4.54,0-8.22-3.68-8.22-8.22c0-4.54,3.68-8.22,8.22-8.22
			C288.8,90.5,292.47,94.18,292.47,98.72z"/>
		<path class="st3" d="M80.21,98.72c0,3.67-2.98,6.64-6.64,6.64c-3.67,0-6.64-2.97-6.64-6.64c0-3.67,2.98-6.64,6.64-6.64
			C77.23,92.08,80.21,95.05,80.21,98.72z"/>
		<rect x="99.2" y="61.44" class="st4" width="159.77" height="57.59"/>
		<rect x="99.2" y="139.89" class="st4" width="159.77" height="22.63"/>
		<g>
			<polygon class="st5" points="141.17,115.99 123.29,86.18 107.2,115.36 102.44,112.74 123.09,75.3 142.56,107.75 169.09,85.54 
				182.4,103.3 213.54,35.91 256.61,112.72 251.87,115.38 214.01,47.84 183.51,113.84 168.18,93.38 			"/>
		</g>
	</g>
	<path class="st0" d="M118.01,137.72c-0.01,0.09-0.01,0.17-0.01,0.26c0,0.26-0.01,0.52-0.05,0.78c-0.17,1.22-0.63,2.38-1.33,3.4
		c-0.09,0.13-0.18,0.26-0.27,0.38c-1.47,1.93-3.84,3.31-6.6,3.6h-23.3l-8.77,35.73l2.52,13.61l8.48-1.7l-24.05,10.21L47.06,183
		l10.77-57.85h19.85l22.09,3.68l2.55,0.43l12.73,2.13C115.35,131.65,117.98,134.14,118.01,137.72z"/>
	<polygon class="st6" points="22.1,199.45 28.55,185.4 95.84,220.44 90.16,230.65 	"/>
	<polygon class="st7" points="0,228.59 19.83,195.48 95.84,230.65 77.07,271.84 	"/>
	<path class="st6" d="M118.01,137.72c-0.01,0.09-0.01,0.17-0.01,0.26c-0.01,0.15-0.02,0.31-0.04,0.47
		c-0.14,1.18-0.54,2.31-1.13,3.29c-2.31-0.2-4.75-0.47-5.85-0.82c-10.98-3.55-9.32-9.96-8.66-11.66l12.73,2.13
		C115.35,131.65,117.98,134.14,118.01,137.72z"/>
	<g>
		<path class="st0" d="M283.4,234.82c-0.38,0.28-1.78,0.13-2.23,0.16l-4.32,0.29c-4.38,0.3-3.66,1.92-8.02,2.21
			c-10.64,0.74-21.39-0.19-32.02,0.54l-11.76,0.8c-0.69,0.05-3.8,0.7-4.29,0.21c-0.28-0.26-0.27-1.7-0.34-2.07
			c-0.08-0.46-0.37-1.91-0.77-3.67c-0.69-2.92-1.65-6.71-2.4-8.38c-0.55-1.19-14.49-21.33-14.96-24.27
			c-0.55-3.55-0.49-7.33-0.75-10.94l-1.03-15.08c-0.07-1.12-0.26-2.31-0.24-3.44c0.1-3.42,1.37-6.99,4.24-8.7
			c1.78-1.07,4.77-1.58,6.66-0.21c1.5,1.09,1.97,3.29,2.41,5c0.63,2.45,0.78,5.02,0.88,7.56c0.11,3.26,1.1,4.48,1.78,3.88
			c0.97-0.81,0.24-3.71,0.18-4.75l-4.77-69.44c-0.13-1.97-0.46-4.05-0.4-6.02c0.02-0.75,0.37-1.44,0.86-2.04
			c0.13-0.16,0.26-0.32,0.4-0.47c0.01-0.02,0.04-0.04,0.06-0.06c0.33-0.32,0.68-0.65,1.02-0.93c3.12-2.6,7.53-2.92,11.05-0.85
			c0.39,0.22,0.77,0.46,1.11,0.72c0.02,0.02,0.05,0.03,0.06,0.05c0.45,0.34,0.84,0.7,1.14,1.13c0.36,0.5,0.6,1.07,0.67,1.73
			c0.11,1.12,0.15,2.21,0.23,3.33c0.28,4.21,3.03,48.6,3.49,51.02c0.36,1.9,2.42,1.63,2.48-0.25c0.07-1.87-0.25-3.84-0.39-5.7
			c-0.18-2.59-1-11.25-0.51-12.82c1.38-4.28,8.2-5.57,11.75-3.52c2.31,1.32,3.48,3.8,3.64,6.39l0.51,7.32
			c0.12,1.81,0.02,3.81,0.38,5.59c0.35,1.68,1.43,1.63,2.63,0.8c1.09-0.77,1.07-7.78,0.91-10.08c-0.2-2.77,0.19-5.42,2.25-7.51
			c2.81-2.85,7.21-2.92,10.51-0.84c2.4,1.5,2.77,3.7,2.94,6.25c0.17,2.55,0.2,12.25,2.33,12.22c0.94,0,1.03-3.21,1.04-4.1
			c0-3.76,2.97-6.99,6.72-7.23c3.02-0.19,5.83,1.54,7.44,4.02c-0.01-0.01-0.01-0.03-0.01-0.03c0.04,0.03,0.07,0.07,0.12,0.18
			c0.03,0.03,0.06,0.07,0.07,0.13c0.02,0.02,0.02,0.03,0.04,0.04l0,0.02c0.61,2,1.96,26.49,2.64,36.61l0.78,11.29
			c0.33,4.89-1.79,9.93-4.11,14.14c-0.6,1.06-2.83,10.67-3.01,11.83c-0.06,0.42,0.38,7.24,0.7,12.03c0.14,2,0.24,3.64,0.29,4.33
			C283.55,233.85,283.78,234.55,283.4,234.82z"/>
		
			<rect x="215.32" y="231.09" transform="matrix(0.9977 -0.0684 0.0684 0.9977 -15.7118 17.8033)" class="st6" width="73.45" height="14.36"/>
		<polygon class="st7" points="300,282.86 299.2,239.73 207.4,246.02 210.9,287.96 		"/>
		<path class="st6" d="M220.79,108.46c-3.61,0.77-7.03-2.57-7.65-7.44l-0.49-4.07c-0.04-0.33-0.07-0.69-0.07-1.02
			c0.33-0.32,0.68-0.65,1.02-0.93c3.12-2.6,7.53-2.92,11.05-0.85c0.39,0.22,0.77,0.46,1.11,0.72c0.02,0.02,0.05,0.03,0.06,0.05
			l0.4,3.25C226.82,103.04,224.37,107.67,220.79,108.46z"/>
	</g>
</g>
</svg>
