<?xml version="1.0" encoding="utf-8"?>
<!-- Generator: Adobe Illustrator 23.0.1, SVG Export Plug-In . SVG Version: 6.00 Build 0)  -->
<svg version="1.1" id="_x31__1_" xmlns="http://www.w3.org/2000/svg" xmlns:xlink="http://www.w3.org/1999/xlink" x="0px" y="0px"
	 viewBox="0 0 300 300" style="enable-background:new 0 0 300 300;" xml:space="preserve">
<style type="text/css">
	.st0{fill:#CC5A44;}
	.st1{fill:#B23929;}
	.st2{fill:#F2CC8F;}
	.st3{fill:#7B7D8E;}
	.st4{fill:#F4F1DE;}
	.st5{fill:#A7A9AC;}
	.st6{fill:#E07A5F;}
	.st7{fill:#1F2442;}
</style>
<g id="_x31_4">
	<polygon class="st0" points="68.11,109.85 56.12,131.98 240.95,131.98 228.96,109.85 	"/>
	<polygon class="st1" points="77.77,154.32 85.34,187.29 85.34,187.29 86.7,193.21 93.04,220.79 94.11,225.46 99.51,248.98 
		100.41,252.83 100.41,252.84 105.08,273.16 105.83,276.43 109.91,294.21 110.56,297.03 111.24,300 189.39,300 190.35,295.43 
		190.96,292.49 194.7,274.72 195.42,271.31 199.69,251.02 199.69,251.02 200.53,246.99 205.46,223.6 206.49,218.69 212.23,191.4 
		213.55,185.12 220.34,152.84 221.74,146.17 228.96,109.85 68.11,109.85 75.89,146.17 	"/>
	<g>
		<polygon class="st2" points="124.92,0 82.21,133.72 201.18,163 224.25,90.75 243.88,29.27 		"/>
		<g>
			<polygon class="st3" points="115.93,53.35 114.48,57.88 215.57,82.76 217.02,78.22 			"/>
			<polygon class="st3" points="120.12,40.22 118.67,44.75 213.83,68.17 215.28,63.63 			"/>
			<polygon class="st3" points="124.31,27.09 122.87,31.62 223.95,56.5 225.4,51.97 			"/>
			<polygon class="st3" points="216.53,35.62 128.5,13.96 127.06,18.49 215.08,40.16 			"/>
			<polygon class="st3" points="110.3,70.96 205.46,94.38 206.91,89.85 111.75,66.43 			"/>
			<polygon class="st3" points="106.12,84.04 207.21,108.92 208.66,104.39 107.57,79.51 			"/>
			<polygon class="st3" points="101.95,97.13 194.1,119.8 195.54,115.27 103.39,92.59 			"/>
			<polygon class="st3" points="97.76,110.21 198.86,135.08 200.3,130.55 99.22,105.68 			"/>
			<polygon class="st3" points="93.59,123.29 194.68,148.17 196.13,143.63 95.03,118.76 			"/>
		</g>
	</g>
	<g>
		<polygon class="st4" points="81.42,33.13 75.1,171.38 198.99,176.02 202.41,101.33 205.32,37.76 		"/>
		<g>
			<polygon class="st5" points="86.75,86.68 86.54,91.37 191.82,95.3 192.03,90.62 			"/>
			<polygon class="st5" points="87.38,73.11 87.16,77.79 186.27,81.5 186.48,76.81 			"/>
			<polygon class="st5" points="88,59.53 87.78,64.22 193.06,68.15 193.27,63.47 			"/>
			<polygon class="st5" points="180.29,49.39 88.62,45.96 88.41,50.64 180.08,54.07 			"/>
			<polygon class="st5" points="85.93,104.89 185.03,108.6 185.24,103.91 86.14,100.21 			"/>
			<polygon class="st5" points="85.3,118.42 190.58,122.35 190.8,117.67 85.52,113.73 			"/>
			<polygon class="st5" points="84.68,131.94 180.66,135.53 180.87,130.85 84.9,127.26 			"/>
			<polygon class="st5" points="84.07,145.47 189.35,149.41 189.56,144.72 84.28,140.78 			"/>
			<polygon class="st5" points="83.45,159 188.73,162.93 188.94,158.25 83.67,154.31 			"/>
		</g>
	</g>
	<polygon class="st6" points="56.12,131.98 60.33,154.39 61.57,161.01 66.91,189.45 66.91,189.45 67.92,194.87 72.92,221.49 
		73.82,226.24 78.52,251.31 79.33,255.61 79.33,255.62 83.77,279.29 84.52,283.25 87.66,300 149,300 149,131.98 	"/>
	<polygon class="st0" points="149,131.98 149,300 214.57,300 217.52,281.17 218.17,277.06 221.86,253.59 221.86,253.58 
		222.56,249.11 226.45,224.34 227.22,219.39 231.34,193.2 232.24,187.48 236.58,159.79 237.43,154.39 240.95,131.98 	"/>
	<g>
		<polygon class="st7" points="149.64,172.05 130.18,160.76 110.71,191.47 131.05,203.28 		"/>
		<polygon class="st7" points="159.33,188.96 148.86,194.95 175.77,193.57 190.61,171.03 179.79,177.24 166.39,160.76 
			135.49,160.76 149.64,169.33 		"/>
		<polygon class="st7" points="166.57,203.26 187.58,232.92 205.79,219.71 185.61,189.46 		"/>
		<polygon class="st7" points="168.19,234.92 166.96,222.92 157.31,248.07 171.9,270.79 170.61,258.37 191.11,252.81 203.64,224.56 
			190.06,234.02 		"/>
		<polygon class="st7" points="113.07,233.76 113.3,256.27 149.64,257.32 149.42,233.81 		"/>
		<polygon class="st7" points="133.16,222.74 118.24,200.31 91.28,199.05 102.15,205.19 94.81,225.12 110.58,251.7 110.73,235.15 
			122.66,216.8 		"/>
	</g>
</g>
</svg>
